HIERARCHY
ROOT Hips
{
	OFFSET 0.000000 0.000000 0.000000 
	CHANNELS 6 Xposition Yposition Zposition Zrotation Yrotation Xrotation
	JOINT LeftUpLeg
	{
		OFFSET 1.363060 -1.794630 0.839290 
		CHANNELS 3 Zrotation Yrotation Xrotation
		JOINT LeftLeg
		{
			OFFSET 2.448110 -6.726130 0.000000 
			CHANNELS 3 Zrotation Yrotation Xrotation
			JOINT LeftFoot
			{
				OFFSET 2.562200 -7.039590 0.000000 
				CHANNELS 3 Zrotation Yrotation Xrotation
				JOINT LeftToeBase
				{
					OFFSET 0.157640 -0.433110 2.322550 
					CHANNELS 3 Zrotation Yrotation Xrotation
					End Site
					{
						OFFSET 0.000000 0.000000 0.000000 
					}
				}
			}
		}
	}
	JOINT RightUpLeg
	{
		OFFSET -1.305520 -1.794630 0.839290 
		CHANNELS 3 Zrotation Yrotation Xrotation
		JOINT RightLeg
		{
			OFFSET -2.542530 -6.985550 0.000000 
			CHANNELS 3 Zrotation Yrotation Xrotation
			JOINT RightFoot
			{
				OFFSET -2.568260 -7.056230 0.000000 
				CHANNELS 3 Zrotation Yrotation Xrotation
				JOINT RightToeBase
				{
					OFFSET -0.164730 -0.452590 2.363150 
					CHANNELS 3 Zrotation Yrotation Xrotation
					End Site
					{
						OFFSET 0.000000 0.000000 0.000000 
					}
				}
			}
		}
	}
	JOINT Spine
	{
		OFFSET 0.028270 2.035590 -0.193380 
		CHANNELS 3 Zrotation Yrotation Xrotation
		JOINT Spine1
		{
			OFFSET 0.056720 2.048850 -0.042750 
			CHANNELS 3 Zrotation Yrotation Xrotation
			JOINT Neck1
			{
				OFFSET -0.054170 1.746240 0.172020 
				CHANNELS 3 Zrotation Yrotation Xrotation
				JOINT Head
				{
					OFFSET 0.104070 1.761360 -0.123970 
					CHANNELS 3 Zrotation Yrotation Xrotation
					End Site
					{
						OFFSET 0.000000 0.000000 0.000000 
					}
				}
			}
			JOINT LeftArm
			{
				OFFSET 3.362410 1.200890 -0.311210 
				CHANNELS 3 Zrotation Yrotation Xrotation
				JOINT LeftForeArm
				{
					OFFSET 4.983000 -0.000000 -0.000000 
					CHANNELS 3 Zrotation Yrotation Xrotation
					JOINT LeftHand
					{
						OFFSET 3.483560 -0.000000 -0.000000 
						CHANNELS 3 Zrotation Yrotation Xrotation
						JOINT LeftHandIndex1
						{
							OFFSET 0.715260 -0.000000 -0.000000 
							CHANNELS 3 Zrotation Yrotation Xrotation
							End Site
							{
								OFFSET 0.000000 0.000000 0.000000 
							}
						}
					}
				}
			}
			JOINT RightArm
			{
				OFFSET -3.136600 1.374050 -0.404650 
				CHANNELS 3 Zrotation Yrotation Xrotation
				JOINT RightForeArm
				{
					OFFSET -5.241900 -0.000000 -0.000000 
					CHANNELS 3 Zrotation Yrotation Xrotation
					JOINT RightHand
					{
						OFFSET -3.444170 -0.000000 -0.000000 
						CHANNELS 3 Zrotation Yrotation Xrotation
						JOINT RightHandIndex1
						{
							OFFSET -0.622530 -0.000000 -0.000000 
							CHANNELS 3 Zrotation Yrotation Xrotation
							End Site
							{
								OFFSET 0.000000 0.000000 0.000000 
							}
						}
					}
				}
			}
		}
	}
}
MOTION
Frames: 10
Frame Time: 0.041667
-22.566884 18.069842 -5.016153 -157.793238 72.269052 -149.400423 -3.307155 -7.877002 -22.489777 0.173131 10.753883 30.209624 5.319418 -7.822918 7.294320 0.024400 1.008700 2.772700 13.542644 13.196792 -21.020987 -4.187525 -15.397189 46.915607 -2.826373 10.071155 8.574710 -0.885800 5.999300 -16.782500 -0.295552 0.970903 4.461040 -0.180085 1.347658 -5.262591 8.981278 4.900006 -23.925290 0.689200 1.029700 -7.373100 -67.163300 5.494435 31.768404 39.684757 -45.367361 -21.159474 0.584702 -1.736465 -7.301705 -7.125000 0.000000 0.000000 78.541673 -14.422518 36.209923 -34.689794 40.738797 -13.374467 0.653069 0.142594 -5.876434 7.125000 0.000000 0.000000 
-22.477403 18.073643 -5.048617 -157.656100 72.308181 -149.285907 -3.351779 -7.916834 -22.114769 0.170176 10.690627 30.112354 5.240338 -7.578013 6.984272 0.021700 0.950000 2.611400 13.406619 13.513622 -21.580973 -3.937153 -15.277794 46.088243 -2.896205 10.128327 8.036848 -0.923500 6.122500 -17.140300 -0.249971 0.871045 4.467425 -0.035507 1.289805 -5.246747 9.157400 5.047267 -23.981516 0.748800 1.094300 -7.371000 -66.992107 5.372126 31.966089 40.495236 -45.784716 -21.806893 0.587238 -1.731507 -7.474621 -7.125000 0.000000 0.000000 78.496996 -14.522181 36.037224 -34.637648 40.705028 -13.352933 0.658327 0.134395 -5.803363 7.125000 0.000000 0.000000 
-22.386176 18.078574 -5.081697 -157.527190 72.358619 -149.170985 -3.402463 -7.946656 -21.726258 0.156971 10.615361 29.978833 5.156775 -7.322548 6.690342 0.018800 0.886200 2.435800 13.251470 13.817628 -22.105355 -3.640095 -15.115638 45.113017 -2.958332 10.135182 7.617346 -0.964000 6.251400 -17.515600 -0.191875 0.774610 4.471609 0.128868 1.232573 -5.222173 9.317992 5.205015 -24.020511 0.801000 1.165400 -7.362300 -66.837717 5.279874 32.192322 41.267420 -46.172829 -22.425969 0.588697 -1.726260 -7.680589 -7.125000 0.000000 0.000000 78.440300 -14.628582 35.850046 -34.535833 40.635489 -13.299038 0.662870 0.123416 -5.663125 7.125000 0.000000 0.000000 
-22.291764 18.085663 -5.116215 -157.362716 72.437466 -149.027744 -3.457891 -7.958077 -21.304403 0.132753 10.525549 29.804994 5.065481 -7.048005 6.421567 0.016400 0.827200 2.273400 13.084317 14.121385 -22.566678 -3.297740 -14.906587 43.989923 -3.008554 10.076444 7.309490 -1.003400 6.374300 -17.874300 -0.147359 0.686630 4.467376 0.253568 1.179484 -5.208847 9.488673 5.367530 -24.020529 0.852100 1.238400 -7.339000 -66.651811 5.238417 32.464718 41.996311 -46.532312 -23.013970 0.589179 -1.721684 -7.915968 -7.125000 0.000000 0.000000 78.421014 -14.752391 35.636854 -34.388064 40.533374 -13.214106 0.667272 0.111157 -5.476248 7.125000 0.000000 0.000000 
-22.194784 18.095217 -5.151247 -157.172401 72.525650 -148.858472 -3.507615 -7.961871 -20.855438 0.095449 10.419171 29.582750 4.973441 -6.772345 6.190127 0.014800 0.784300 2.155600 12.913921 14.422123 -22.969855 -2.914851 -14.649536 42.726420 -3.040925 9.928653 7.098946 -1.046000 6.504000 -18.253900 -0.103267 0.601263 4.453506 0.360986 1.127538 -5.207794 9.659402 5.531532 -23.987718 0.901600 1.313100 -7.304400 -66.458188 5.245000 32.779056 42.677964 -46.862655 -23.565205 0.588078 -1.717245 -8.159868 -7.125000 0.000000 0.000000 78.418885 -14.887600 35.404169 -34.191014 40.395515 -13.096898 0.671680 0.098281 -5.250293 7.125000 0.000000 0.000000 
-22.095339 18.107134 -5.186895 -156.968431 72.619172 -148.677853 -3.551586 -7.963802 -20.375349 0.043963 10.294834 29.307916 4.881084 -6.497157 6.000381 0.013700 0.755300 2.075700 12.739802 14.712592 -23.312586 -2.495128 -14.342048 41.328008 -3.052832 9.685335 6.994358 -1.079100 6.602800 -18.544000 -0.066684 0.520521 4.427046 0.437194 1.078038 -5.227467 9.827480 5.688698 -23.919052 0.946600 1.384600 -7.258700 -66.240465 5.297164 33.146314 43.298582 -47.159249 -24.067789 0.585781 -1.713142 -8.405406 -7.125000 0.000000 0.000000 78.453798 -15.035681 35.141822 -33.941321 40.219082 -12.945093 0.676215 0.084250 -4.985139 7.125000 0.000000 0.000000 
-21.993324 18.121208 -5.223058 -156.754996 72.714816 -148.496932 -3.591436 -7.962588 -19.856428 -0.021677 10.152241 28.979433 4.786600 -6.218311 5.850774 0.012900 0.733600 2.016200 12.565364 14.992213 -23.584536 -2.046300 -13.983672 39.806911 -3.039834 9.329831 6.972660 -1.109400 6.691900 -18.805800 -0.019864 0.446667 4.398663 0.516975 1.031458 -5.253098 9.975831 5.834173 -23.823304 0.984900 1.452600 -7.204200 -66.033670 5.381191 33.555205 43.855258 -47.422417 -24.517228 0.582337 -1.708851 -8.641195 -7.125000 0.000000 0.000000 78.485217 -15.184926 34.860460 -33.643997 40.006162 -12.763465 0.680488 0.070197 -4.697064 7.125000 0.000000 0.000000 
-21.888639 18.137337 -5.259836 -156.523076 72.810681 -148.308157 -3.623356 -7.958976 -19.299205 -0.101701 9.990166 28.594227 4.690710 -5.937516 5.745783 0.012400 0.720000 1.978800 12.395972 15.267456 -23.784586 -1.576029 -13.575692 38.177966 -3.001124 8.868122 7.021222 -1.135400 6.767100 -19.027300 0.022709 0.371794 4.360183 0.568760 0.984829 -5.300872 10.118111 5.966917 -23.701873 1.020500 1.515100 -7.142600 -65.814571 5.515212 34.001156 44.348139 -47.655266 -24.915637 0.578858 -1.704886 -8.857651 -7.125000 0.000000 0.000000 78.539064 -15.345118 34.565137 -33.309802 39.764357 -12.558295 0.684735 0.057048 -4.385649 7.125000 0.000000 0.000000 
-21.781591 18.155110 -5.297334 -156.295590 72.904176 -148.132120 -3.652785 -7.955059 -18.702958 -0.195795 9.809224 28.152598 4.595603 -5.660809 5.677410 0.012200 0.712700 1.958500 12.227220 15.533152 -23.913442 -1.093598 -13.120594 36.459467 -2.938592 8.314419 7.124757 -1.133100 6.760500 -19.007900 0.076870 0.295464 4.317878 0.626725 0.937278 -5.358578 10.238168 6.091838 -23.570886 1.050900 1.576100 -7.081000 -65.623522 5.683996 34.464650 44.769983 -47.855629 -25.255218 0.575664 -1.700776 -9.038685 -7.125000 0.000000 0.000000 78.570959 -15.505363 34.273726 -32.946425 39.497910 -12.336056 0.688710 0.046152 -4.068172 7.125000 0.000000 0.000000 
-21.671564 18.173910 -5.335961 -156.080812 73.000873 -147.986598 -3.691087 -7.949670 -18.076196 -0.291483 9.625839 27.702329 4.501444 -5.392232 5.597979 0.012100 0.709700 1.950300 12.060970 15.790957 -23.982848 -0.618727 -12.635403 34.710472 -2.859434 7.711013 7.247726 -1.118700 6.718900 -18.885200 0.125707 0.214646 4.267411 0.661819 0.888286 -5.436775 10.342684 6.204152 -23.429589 1.075700 1.631200 -7.019500 -65.424984 5.912340 34.951673 45.142923 -48.036235 -25.557814 0.573851 -1.697967 -9.193833 -7.125000 0.000000 0.000000 78.609506 -15.682033 33.988079 -32.569237 39.218364 -12.105461 0.691962 0.036658 -3.732045 7.125000 0.000000 0.000000 
